<svg width="72" height="22" viewBox="0 0 72 22" fill="none" xmlns="http://www.w3.org/2000/svg">
<g clip-path="url(#clip0_31_1451)">
<path fill-rule="evenodd" clip-rule="evenodd" d="M0 4.51051C0 2.01989 2.07193 0.000854492 4.6278 0.000854492H17.9468C20.5027 0.000854492 22.5747 2.01989 22.5747 4.51051V17.4895C22.5747 19.9801 20.5027 21.9992 17.9468 21.9992H4.6278C2.07193 21.9992 0 19.9801 0 17.4895V4.51051ZM17.1144 14.6692V5.86302C17.1144 5.45773 16.7883 5.12918 16.386 5.12918H12.5467C12.2303 5.12918 11.95 5.33497 11.8533 5.63846L11.5475 6.59687H6.18863C5.78635 6.59687 5.46025 6.92543 5.46025 7.33076V16.1369C5.46025 16.5422 5.78635 16.8708 6.18863 16.8708H10.028C10.3444 16.8708 10.6246 16.665 10.7214 16.3615L11.0272 15.4031H16.386C16.7883 15.4031 17.1144 15.0745 17.1144 14.6692ZM13.5309 7.55528L11.0272 15.4031H9.73716C9.24333 15.4031 8.89263 14.9184 9.04371 14.4447L11.5475 6.59687H12.8374C13.3313 6.59687 13.682 7.08158 13.5309 7.55528ZM53.8821 6.60032C52.4823 6.60032 51.2166 7.4135 50.6621 8.66911L50.5473 8.92904L52.1254 9.59403L52.2402 9.33409C52.5229 8.69387 53.1683 8.27917 53.8821 8.27917H54.2472C54.9117 8.27917 55.4503 8.80535 55.4503 9.45444V9.64753L52.2473 10.3259C51.1202 10.5647 50.3161 11.5387 50.3161 12.6653C50.3161 13.9873 51.4132 15.059 52.7666 15.059H53.6548C54.6697 15.059 55.584 14.6378 56.2243 13.9647C56.7453 14.5063 57.4853 14.8447 58.3062 14.8447V13.1658C57.6781 13.1658 57.169 12.6684 57.169 12.0549V9.45444C57.169 7.87816 55.8608 6.60032 54.2472 6.60032H53.8821ZM55.443 11.3669L52.6116 11.9667C52.2749 12.038 52.0348 12.3288 52.0348 12.6653C52.0348 13.0601 52.3624 13.3801 52.7666 13.3801H53.6548C54.6423 13.3801 55.443 12.5981 55.443 11.6333V11.3669ZM49.0472 8.47212C48.0596 8.47212 47.259 9.25412 47.259 10.2189V14.8411H45.5403V7.79698H46.567C47.2017 7.17684 48.0786 6.79321 49.0472 6.79321H49.7201V8.47212H49.0472ZM62.6067 8.47212C61.6191 8.47212 60.8185 9.25412 60.8185 10.2189V14.8411H59.0998V7.79698H60.1265C60.7611 7.17684 61.638 6.79321 62.6067 6.79321H63.2795V8.47212H62.6067ZM67.6567 6.63604C65.4392 6.63604 63.6415 8.39207 63.6415 10.5582V10.6975C63.6415 12.9406 65.5031 14.7589 67.7993 14.7589H68.2975C69.3069 14.7589 70.2749 14.3672 70.9885 13.6701L69.7733 12.4829C69.3819 12.8652 68.8511 13.08 68.2975 13.08H67.7993C66.8137 13.08 65.9645 12.5089 65.5798 11.687H71.6719V10.5582C71.6719 8.39207 69.8742 6.63604 67.6567 6.63604ZM67.6567 8.31493C68.7307 8.31493 69.6325 9.03513 69.8836 10.0081H65.4297C65.6809 9.03513 66.5827 8.31493 67.6567 8.31493ZM40.6914 6.63604C38.4739 6.63604 36.6762 8.39207 36.6762 10.5582V10.6975C36.6762 12.9406 38.5377 14.7589 40.834 14.7589H41.3322C42.3416 14.7589 43.3096 14.3672 44.0233 13.6701L42.808 12.4829C42.4166 12.8652 41.8857 13.08 41.3322 13.08H40.834C39.8483 13.08 38.9991 12.5089 38.6145 11.687H44.7066V10.5582C44.7066 8.39207 42.9089 6.63604 40.6914 6.63604ZM42.9183 10.0081H38.4645C38.7156 9.03513 39.6174 8.31493 40.6914 8.31493C41.7654 8.31493 42.6672 9.03513 42.9183 10.0081ZM31.8645 14.9161C30.9885 14.9161 30.1628 14.6422 29.4869 14.1663V17.8059H27.7682V10.9588C27.7651 10.8675 27.7651 10.7763 27.7682 10.685V7.80408H29.0348C29.7754 7.09551 30.7856 6.67176 31.874 6.67176C34.1142 6.67176 35.9302 8.44572 35.9302 10.634V10.9446C35.9302 13.138 34.1099 14.9161 31.8645 14.9161ZM29.6358 9.97573C29.9331 9.011 30.8426 8.35063 31.874 8.35063C33.165 8.35063 34.2115 9.37291 34.2115 10.634V10.9446C34.2115 12.2108 33.1607 13.2372 31.8645 13.2372C30.8347 13.2372 29.9251 12.5815 29.6217 11.6202L29.5944 11.5336C29.5319 11.3357 29.496 11.1318 29.4869 10.927V10.7167C29.4958 10.5173 29.53 10.3187 29.5896 10.1255L29.6358 9.97573Z" fill="#0E1217"/>

</g>
<defs>
<clipPath id="clip0_31_1451">
<rect width="71.6719" height="22" fill="white"/>
</clipPath>
</defs>
</svg>
